<svg width="35" height="35" viewBox="0 0 41 40" fill="none" xmlns="http://www.w3.org/2000/svg">
<path d="M0.669186 20C0.669186 9.22902 9.374 0.5 20.1088 0.5C30.8435 0.5 39.5483 9.22902 39.5483 20C39.5483 30.771 30.8435 39.5 20.1088 39.5C9.374 39.5 0.669186 30.771 0.669186 20Z" stroke="#076BFF"/>
<g clip-path="url(#clip0_27_14)">
<path d="M25.6794 20.5226L17.218 29.8232C17.0223 30.0385 16.7537 30.1645 16.4618 30.1781C16.1699 30.1916 15.8909 30.091 15.6764 29.8947L14.9936 29.2705C14.5492 28.8638 14.5176 28.1707 14.923 27.7251L22.0283 19.915L14.233 12.788C14.0185 12.5918 13.8928 12.3228 13.8794 12.0303C13.866 11.7375 13.9668 11.4579 14.1624 11.2425L14.7856 10.5579C14.9814 10.3426 15.2499 10.2165 15.5418 10.203C15.8337 10.1894 16.1127 10.2901 16.3271 10.4863L25.6087 18.9718C25.8237 19.1687 25.9491 19.439 25.9619 19.732C25.9759 20.0261 25.8756 20.3068 25.6794 20.5226Z" fill="#595555"/>
</g>
<defs>
<clipPath id="clip0_27_14">
<rect width="19.9396" height="20" fill="white" transform="matrix(1 0 2.22607e-08 -1 10.1389 30)"/>
</clipPath>
</defs>
</svg>
